<svg xmlns="http://www.w3.org/2000/svg" width="400" height="400"><g fill-rule="evenodd"><path d="M190.02 100.093c-.384 7.581-1.904 14.008-4.124 17.443-1.463 2.264-2.195 2.637-6.651 3.39-3.77.636-11.296 2.561-13.898 3.554-4.589 1.751-9.566-1.956-17.504-13.036l-2.352-3.283-.778.469c-.427.258-3.506 2.055-6.842 3.994a1278.948 1278.948 0 00-6.826 3.984l-.761.458 2.009 4.029c4.562 9.152 5.755 15.99 3.394 19.464-.364.536-2.075 2.212-3.802 3.724-1.726 1.512-4.511 4.224-6.188 6.026-5.361 5.762-5.646 6.018-7.124 6.372-3.806.913-12.268-1.404-20.805-5.696l-1.366-.687-4.863 7.823-4.862 7.823 1.897 1.141c8.559 5.147 15.386 12.265 15.386 16.041 0 .38-.347 1.63-.772 2.78-2.396 6.48-4.432 15.011-5.047 21.148-.298 2.967-1.078 4.164-3.727 5.716-3.152 1.848-11.733 4.016-19.476 4.921l-1.423.166v17.719l2.908.173c12.655.752 21.918 4.154 23.051 8.467.139.526.599 2.35 1.024 4.051.424 1.702 1.39 4.926 2.146 7.165 1.542 4.567 1.584 5.223.506 7.891-1.59 3.937-6.679 9.725-13.703 15.585l-1.766 1.473 4.701 7.272 4.701 7.273 3.253-1.625c12.407-6.196 19.067-7.428 22.133-4.095 1.839 1.999 9.159 9.271 11.115 11.042 2.125 1.923 2.429 2.706 2.406 6.188-.025 3.921-1.588 10.545-4.053 17.186-.552 1.489-.919 2.792-.815 2.895.105.104 2.696 1.542 5.759 3.196 3.063 1.655 6.366 3.445 7.34 3.979l1.771.97 1.428-2.046c7.992-11.457 13.853-15.6 19.412-13.72 2.786.942 8.151 2.31 11.633 2.965 4.766.898 5.75 1.703 7.471 6.109 1.307 3.349 2.923 12.335 2.925 16.275 0 .242 2.065.309 9.5.309h9.499l.015-4.269c.033-9.828 1.667-15.806 4.749-17.377.34-.174 1.732-.509 3.094-.745 5.425-.941 11.891-2.674 17.261-4.627 4.192-1.525 5.522-1.569 8.134-.267 3.696 1.841 9.155 7.028 14.333 13.62l.618.788 7.58-4.903 7.58-4.904-.972-1.591c-5.753-9.409-7.214-17.361-4.166-22.675.648-1.129 5.45-6.499 9.06-10.131 3.799-3.823 12.5-3.112 23.028 1.881l3 1.423 4.417-7.929c3.565-6.4 4.346-7.971 4.054-8.145-.2-.118-1.228-.703-2.284-1.298-10.643-5.998-15.336-13.289-13.164-20.453.953-3.145 2.578-9.907 2.583-10.749.022-4.071 8.495-6.559 22.337-6.559h3.16v-18.242l-2.537-.163c-8.344-.534-15.768-2.831-19.153-5.925-1.796-1.642-2.465-3.134-3.073-6.863-.69-4.232-1.803-9.192-2.86-12.743-.486-1.634-.995-3.444-1.131-4.023-1.011-4.309 4.74-11.537 14.212-17.865 1.055-.704 1.918-1.33 1.918-1.39 0-.13-8.117-14.649-8.533-15.264-.258-.382-.531-.26-2.742 1.218-11.117 7.435-18.124 7.178-25.139-.919-2.374-2.741-6.484-6.855-9.13-9.142-2.775-2.398-3.105-3.014-3.055-5.709.068-3.596 2.196-10.567 5.29-17.327.655-1.429 1.116-2.673 1.025-2.763-.309-.306-14.658-8.198-14.729-8.101-7.067 9.826-11.862 14.441-15.953 15.357-1.323.296-1.416.278-5.094-.973-4.193-1.426-10.064-2.99-14.099-3.756-3.102-.589-3.292-.672-4.378-1.909-2.269-2.585-4.032-9.919-4.413-18.355l-.163-3.634-9.182-.064-9.182-.065-.156 3.069m18.643 44.43c30.677 4.596 56.81 29.611 62.997 60.3 6.519 32.337-6.346 63.331-33.908 81.687-20.03 13.341-45.962 15.783-69.683 6.564-11.848-4.606-24.682-14.981-33.54-27.117-18.707-25.627-18.855-63.255-.352-89.224 13.456-18.886 32.808-30.448 54.684-32.672 3.818-.388 16.031-.103 19.802.462" fill="#7b23ab"/><path d="M179.827 32.095c-19.325 9.932-33.527 30.784-35.539 52.178-.364 3.881-.158 13.821.374 17.955.201 1.565.371 2.923.377 3.016.006.094.756-.037 1.667-.289l1.657-.46 1.252 1.134c1.722 1.559 4.582 3.397 6.265 4.027l1.403.525 3.598-3.764c1.98-2.069 3.677-3.895 3.773-4.056.095-.161-.314-1.232-.909-2.379-7.453-14.37-8.083-30.176-1.804-45.269 2.66-6.396 10.202-15.892 16.9-21.277 2.94-2.365 2.918-2.334.986-1.341m44.059.002c.136.137.972.793 1.857 1.458 7.442 5.593 12.626 13.825 15.112 23.995 3.892 15.925 2.81 27.552-3.85 41.383l-1.81 3.76 4.089 4.532c2.248 2.493 4.188 4.57 4.31 4.616 1.021.383 5.235-3.216 7.823-6.681.899-1.204 1.756-2.188 1.904-2.186.147.002 1.152.278 2.233.614 1.08.336 2.027.547 2.104.471.387-.388.131-19.835-.302-22.871-2.722-19.092-13.111-35.905-28.512-46.145-2.719-1.808-5.429-3.418-4.958-2.946M326.9 231.35c-.092.093-.167.872-.167 1.733v1.565l-2.29 1.147c-2.708 1.357-7.828 4.678-8.032 5.211-.137.355 1.81 9.679 2.127 10.186.082.133 2.155.369 4.606.525 16.914 1.076 26.89 5.505 38.497 17.094 5.563 5.554 8.876 10.792 11.773 18.615l.852 2.302-.151-1.609c-1.889-20.13-13.839-38.813-31.788-49.699-4.979-3.019-14.921-7.575-15.427-7.07m-259.821 4.825c-12.743 5.029-21.365 11.667-29.852 22.983-7.911 10.549-13.283 25.742-13.197 37.323l.019 2.653.33-1.485c1.474-6.64 6.554-17.008 11.339-23.144 9.325-11.957 22.854-18.897 37.976-19.483l3.769-.146 1.263-3.242a1605.41 1605.41 0 002.16-5.576l.896-2.332-1.446-1.293c-2.215-1.981-5.226-3.438-10.225-4.948-.17-.051-.309-.366-.309-.7 0-1.579-.171-1.617-2.723-.61m212.18 75.333c-3.171.852-5.844 1.628-5.941 1.724-.324.323-.357 5.681-.053 8.457.267 2.431.256 2.824-.09 3.353-1.034 1.576 11.654 11.608 19.028 15.045 9.982 4.652 22.398 5.9 37.005 3.718 10.726-1.603 23.766-7.131 30.074-12.75l.99-.882-1.251.72c-4.151 2.389-11.172 4.827-18.427 6.399-7.953 1.723-23.239-.63-32.265-4.967-7.78-3.738-15.773-11.4-21.266-20.382-.77-1.259-1.4-2.031-1.643-2.014-.218.016-2.99.726-6.161 1.579m-166.735 4.676c-9.651 14.615-19.808 20.526-39.001 22.697-10.318 1.166-22.355-1.76-32.063-7.795-2.319-1.443-2.087-1.171 1.238 1.444 5.998 4.717 11.373 7.411 21.288 10.669 20.581 6.763 42.907 2.246 62.793-12.705 2.138-1.608 2.163-1.638 1.681-2.087-.339-.316-.49-.779-.49-1.506 0-2.952-1.169-9.879-1.951-11.554l-.404-.867-4.948-.542c-2.722-.298-5.249-.549-5.616-.557-.581-.013-.905.347-2.527 2.803" fill="#530c0c"/><path d="M218.317 14.696c0 .221 1.405.792 4.022 1.633 24.507 7.877 40.225 20.823 50.798 41.839 5.815 11.56 8.374 22.148 8.705 36.015.428 17.929-2.428 28.749-11.941 45.243l-1.142 1.98 7.174 7.174 7.174 7.175 1.677-.292c5.016-.874 11.855-4.12 15.761-7.48l1.411-1.214 1.257 1.863c1.796 2.66 2.014 2.573 2.692-1.079 3.686-19.849 3.663-37.331-.068-52.38-3.989-16.094-16.717-38.146-29.825-51.675-12.09-12.478-38.119-26.425-53.681-28.762-3.157-.474-4.014-.483-4.014-.04m-50.015 2.011c-22.635 6.832-45.118 23.181-57.528 41.833-16.677 25.063-22.661 50.847-19.301 83.168.619 5.962.445 5.763 3.448 3.939l1.869-1.135 1.419 1.225c4.394 3.79 11.298 7.081 16.023 7.636l1.293.152 6.408-7.602c3.525-4.182 6.49-7.747 6.59-7.922.108-.189-1.51-3.817-3.999-8.966-6.448-13.337-7.102-15.826-7.369-28.045-.466-21.371 3.906-37.346 14.728-53.81 7.948-12.093 20.925-22.026 38.847-29.737 4.793-2.062 3.382-2.49-2.428-.736m48.538 11.944c.006.291.635.739 1.918 1.365 8.317 4.059 16.927 14.028 19.822 22.954 5.604 17.275 4.72 31.701-2.853 46.597l-1.605 3.155.699.83c2.824 3.351 8.435 9.319 8.761 9.319 1.921 0 7.656-5.117 9.573-8.543.18-.32.486-.287 2.301.245 2.833.832 2.864.827 3.055-.427.682-4.491.407-18.492-.486-24.691-2.232-15.502-11.599-31.741-24.119-41.814-6.571-5.287-17.102-10.834-17.066-8.99m-33.193.651c-10.801 4.527-22.359 14.136-29.066 24.163-9.893 14.792-13.015 29.277-10.733 49.806.386 3.476.279 3.358 2.506 2.763l1.839-.491 1.412 1.315c1.654 1.539 4.454 3.239 6.457 3.92l1.416.481 3.32-3.464c1.826-1.905 3.726-3.943 4.222-4.529l.903-1.065-1.506-3.024c-7.604-15.271-7.802-31.73-.556-46.23 3.679-7.362 12.83-17.423 20.297-22.315 2.638-1.728 2.333-2.522-.511-1.33m-1.716 1.742c0 .057-.975.861-2.166 1.787-2.54 1.975-6.597 5.978-9.248 9.124-7.811 9.274-10.29 14.917-12.395 28.218-1.373 8.68.582 19.217 5.358 28.873l1.549 3.131-3.813 4.048c-2.51 2.665-3.956 4.021-4.234 3.969-1.549-.286-4.889-2.263-7.276-4.307l-1.407-1.206-1.475.382c-.811.211-1.582.383-1.712.383-.469 0-1.291-9.19-1.295-14.481-.02-22.137 11.4-43.084 30.372-55.708 2.369-1.577 7.742-4.5 7.742-4.213m42.895 1.302c16.688 9.514 29.062 27.14 32.207 45.877 1.089 6.489 1.534 21.9.738 25.52l-.143.648-2.214-.688-2.214-.688-1.027 1.401c-2.568 3.5-5.726 6.515-7.679 7.331l-.902.377-3.65-4.02-4.264-4.696-.613-.676 1.75-3.656c6.85-14.307 7.86-26.083 3.649-42.551-2.493-9.75-7.857-17.789-15.712-23.546-3.042-2.229-3.022-2.398.074-.633m-35.471 64.251c-.019 6.076-1.708 15.473-3.401 18.93-1.563 3.194-2.427 3.743-7.117 4.528-3.756.628-8.491 1.801-12.484 3.093-3.587 1.161-4.536 1.115-6.752-.329-3.117-2.031-8.098-7.584-12.308-13.722-.723-1.056-1.442-1.919-1.596-1.919-.283 0-15.928 9.011-16.339 9.411-.129.126.67 2.004 1.915 4.499 3.227 6.47 4.805 11.802 4.557 15.398-.199 2.885-.567 3.469-4.355 6.919-3.438 3.129-6.36 6.065-9.723 9.766-2.083 2.293-2.929 2.741-5.202 2.759-3.879.03-12.103-2.576-18.872-5.981-1.811-.91-1.049-1.766-7.067 7.935-5.7 9.187-5.388 8.355-3.517 9.383 6.163 3.388 13.224 9.709 15.097 13.513.993 2.017.981 2.396-.185 5.575-1.936 5.277-3.372 11.108-4.367 17.729-.829 5.515-.737 5.188-1.769 6.33-2.209 2.445-9.428 4.739-19.014 6.041-1.633.222-3.218.455-3.521.517l-.551.114-.068 9.588c-.043 6.185.02 9.653.18 9.77.136.1 1.083.186 2.104.19 5.569.024 14.631 1.72 18.451 3.452 3.953 1.792 4.785 2.87 5.955 7.718.462 1.914 1.453 5.301 2.202 7.526.749 2.226 1.362 4.425 1.362 4.889 0 3.905-5.981 11.523-13.953 17.768-1.292 1.012-2.356 1.984-2.366 2.16-.037.676 9.819 15.518 10.36 15.601.287.044 1.448-.425 2.58-1.042 6.627-3.613 14.494-6.34 18.287-6.34 2.516 0 2.206-.21 7.184 4.871 2.348 2.398 5.328 5.302 6.621 6.455 2.727 2.43 3.249 3.279 3.411 5.546.27 3.768-1.666 11.951-4.58 19.36-.697 1.774-.799 2.238-.528 2.412 1.103.707 16.029 8.634 16.257 8.634.152 0 .684-.641 1.182-1.424 4.109-6.453 10.633-13.082 14.217-14.444 1.745-.663 2.877-.59 6.021.39 3.188.994 8.002 2.165 11.094 2.699 3.35.579 4.563 1.505 5.935 4.532 1.506 3.321 3.17 12.017 3.177 16.601l.002 1.299h20.916l.018-5.012c.027-7.424.874-12.258 2.604-14.871.999-1.508 1.742-1.872 4.922-2.415 5.421-.925 13.924-3.287 18.812-5.225 4.542-1.802 11.047 2.61 18.773 12.733.909 1.191 1.788 2.166 1.953 2.166.165 0 3.923-2.339 8.352-5.198 4.429-2.859 8.097-5.198 8.151-5.198.385 0 .25 1.96-.187 2.699l-.501.85 2.723 2.619c10.266 9.876 21.379 15.651 32.44 16.857 4.348.475 17.851.185 22.034-.473 13.981-2.198 25.652-7.649 34.7-16.207 3.101-2.933 3.451-4.96.404-2.341-8.673 7.456-25.29 12.029-37.192 10.237-18.13-2.73-28.245-9.041-38.1-23.77-.82-1.226-1.677-2.59-1.905-3.033-.535-1.037-.218-1.074-7.669.887-7.634 2.009-6.966 1.37-6.966 6.663 0 2.212-.03 4.022-.066 4.022-.576 0-4.272-7.252-5.362-10.52-2.503-7.502-1.697-11.327 3.539-16.802a500.566 500.566 0 004.612-4.885c4.232-4.579 12.051-4.072 23.818 1.544 1.391.664 2.621 1.208 2.732 1.208.21 0 9.716-16.89 9.708-17.248-.002-.112-.977-.72-2.166-1.353-4.085-2.173-9.048-6.088-11.299-8.913-3.318-4.164-3.818-7.267-2.087-12.957a91.417 91.417 0 001.547-5.94c.355-1.634.759-3.385.899-3.892.81-2.928 8.754-4.892 19.794-4.894h3.094l-1.733 1.136c-2.575 1.69-3.836 2.791-3.836 3.351 0 .423 2.027 9.744 2.366 10.882.098.329.745.422 3.905.558 11.808.509 21.543 3.2 28.552 7.891 14.698 9.838 23.613 23.479 24.268 37.134.1 2.082.227 2.908.448 2.908 1.441 0 .577-13.076-1.405-21.253-5.312-21.926-20.125-38.329-43.159-47.79-4.291-1.762-4.331-1.761-4.335.162-.005 2.157-.166 2.497-1.506 3.175-.658.334-1.268.607-1.355.607-.087 0-.076-4.12.024-9.155.214-10.714.414-9.904-2.45-9.906-4.844-.003-12.467-1.689-16.256-3.594-4.24-2.133-5.145-3.518-6.173-9.45-.907-5.233-1.212-6.566-2.773-12.137l-1.266-4.515.432-1.597c1.062-3.921 6.716-9.923 13.745-14.59 1.153-.766 2.183-1.393 2.289-1.393.396 0 .089-.597-4.52-8.805-5.355-9.536-4.978-8.981-5.733-8.429-11.53 8.438-19.082 9.091-25.353 2.191-2.893-3.182-8.442-8.732-10.912-10.912-1.178-1.039-1.881-1.872-2.073-2.452-.837-2.537 1.004-9.439 5.021-18.818.893-2.086 1.422-3.626 1.29-3.752-.528-.501-15.5-8.676-15.888-8.674-.25.001-.835.637-1.416 1.54-3.621 5.623-9.204 11.39-12.785 13.205-2.05 1.038-2.684 1.013-6.398-.256-4.122-1.407-8.886-2.683-13.434-3.596-3.954-.795-4.392-1.039-5.521-3.078-1.823-3.292-3.017-9.436-3.454-17.78l-.166-3.156h-10c-7.834 0-10 .067-10.001.31m19.312.866c.057 6.763 1.553 15.726 3.231 19.367 1.343 2.915 1.947 3.317 6.301 4.194 4.539.916 10.108 2.425 13.789 3.738 3.117 1.112 3.855 1.176 5.774.501 3.41-1.198 9.534-7.217 13.665-13.428.616-.928 1.158-1.686 1.203-1.686.082 0 12.19 6.704 14.138 7.828l1.051.607-.769 1.524c-2.012 3.986-4.997 12.516-5.648 16.138-.724 4.033-.281 5.252 2.954 8.128 2.741 2.436 7.609 7.367 10.086 10.214 5.969 6.864 13.478 6.663 24.36-.654l2.151-1.447 4.193 7.482c2.306 4.115 4.32 7.726 4.475 8.025.264.507.114.659-2.256 2.274-6.912 4.712-11.975 10.016-13.345 13.982-.631 1.823-.564 2.837.401 6.071a113.87 113.87 0 013.107 13.241c.85 4.875 1.255 5.847 3.183 7.631 3.37 3.12 12.585 5.863 19.757 5.882 2.302.006 2.139-.808 1.93 9.642l-.182 9.101-5.972.147c-12.071.296-19.214 2.46-19.214 5.82 0 .902-1.167 5.948-2.158 9.329-1.639 5.591-1.613 7.077.181 10.705 1.823 3.684 7.057 8.481 12.734 11.67 1.308.735 2.347 1.427 2.308 1.537-.249.708-8.771 15.806-8.924 15.81-.105.003-1.349-.553-2.765-1.236-10.555-5.091-19.483-5.761-23.406-1.755-7.969 8.137-9.564 10.292-10.163 13.742-.791 4.55 1.089 11.156 5.055 17.759l1.553 2.586-7.487 4.814c-8.562 5.505-7.871 5.256-9.345 3.358-4.659-5.999-10.109-11.042-13.803-12.771-2.644-1.237-3.534-1.224-7.096.098-5.631 2.091-12.688 4.003-18.351 4.972-3.217.551-4.113 1.205-5.345 3.901-1.312 2.872-2.323 10.845-2.024 15.961l.135 2.289h-19.416l-.303-3.358c-.739-8.181-2.501-14.466-4.783-17.066-1.05-1.196-1.665-1.469-4.419-1.962-3.409-.611-8.13-1.757-11.297-2.744-4.195-1.308-6.188-1.07-9.37 1.119-2.896 1.993-7.749 7.383-11.071 12.296l-1.368 2.022-7.643-4.101c-4.203-2.255-7.681-4.132-7.729-4.171-.047-.039.375-1.266.94-2.727 2.578-6.675 4.372-14.618 4.16-18.421-.162-2.911-.598-3.65-3.827-6.5-2.529-2.232-6.6-6.297-9.383-9.368-3.219-3.553-9.614-2.422-22.299 3.943-1.797.902-3.308 1.588-3.358 1.525-.374-.474-9.12-14.134-9.225-14.407-.087-.227.896-1.229 2.791-2.845 7.893-6.735 12.746-13.048 13.11-17.053.12-1.325-.007-1.893-1.239-5.549-.755-2.24-1.782-5.744-2.283-7.786-1.201-4.896-1.825-5.788-5.261-7.522-4.071-2.055-13.539-3.987-19.547-3.988h-1.794v-18.259l1.671-.174c9.219-.96 18.211-3.614 21.106-6.229 1.158-1.047 1.298-1.488 1.988-6.279.959-6.665 2.603-13.307 4.672-18.886.853-2.298.939-2.724.734-3.635-.943-4.195-6.171-9.508-14.577-14.813-1.293-.816-2.34-1.637-2.326-1.826.027-.354 8.823-14.678 9.36-15.242.246-.258.724-.124 2.513.704 7.6 3.518 12.657 5.124 16.872 5.36 3.819.214 4.025.101 8.34-4.591 3.423-3.722 6.116-6.333 9.579-9.29 4.678-3.994 4.292-10.371-1.313-21.637-1.102-2.216-1.944-4.09-1.869-4.164.074-.074 3.543-2.123 7.709-4.553l7.574-4.419.574.786c.315.432 1.389 1.942 2.385 3.356 4.828 6.854 9.925 11.721 13.247 12.651 1.105.31 1.291.278 4.785-.821 4.891-1.539 8.681-2.485 12.545-3.13 3.873-.646 4.85-1.029 5.978-2.345 2.281-2.661 4.225-9.573 4.668-16.599.077-1.225.2-2.812.272-3.527l.133-1.299h9.264c8.657 0 9.265.028 9.268.433m-19.558 46.75c-22.439 2.612-39.914 12.749-53.713 31.157-19.938 26.6-19.831 64.953.257 91.833 17.922 23.983 45.735 35.072 75.114 29.95 29.87-5.208 54.954-30.117 60.867-60.442 8.504-43.612-20.149-85.348-63.218-92.083-2.249-.352-17.107-.671-19.307-.415m19.307 1.188c29.781 4.556 55.176 28.177 61.895 57.569 2.937 12.853 2.559 27.931-1.011 40.288-6.518 22.554-25.593 42.693-47.642 50.296-45.59 15.721-94.047-14.869-99.772-62.985-5.084-42.734 25.042-81.171 67.099-85.606 2.558-.27 16.921.054 19.431.438m-57.2 21.155c-13.072 10.947-22.688 27.626-23.546 40.843l-.071 1.086 3.128 1.908c12.339 7.525 23.476 17.417 28.793 25.574 1.752 2.688.802 2.922 9.369-2.304l7.101-4.331-.186-1.981c-1.44-15.366 4.408-25.922 17.142-30.939l1.98-.78v-17.53l-3.713-.308c-13.958-1.156-27.53-5.737-35.764-12.074-1.818-1.398-1.488-1.463-4.233.836m-72.998-.242c-33.245 13.413-54.631 34.334-67.074 65.617-5.234 13.157-8.315 36.932-6.48 50 1.499 10.675 5.598 27.227 6.743 27.227.571 0 .576-.082.103-1.631-5.303-17.374-2.873-46.533 5.195-62.354 13.101-25.688 38.104-41.658 71.909-45.931 2.246-.284 4.158-.591 4.247-.683.54-.554 6.153-18.881 5.917-19.321-.742-1.387-7.383-5.976-13.134-9.076a457.945 457.945 0 01-3.666-1.987c-.042-.029.105-.676.326-1.437.676-2.326.638-2.33-4.086-.424m234.761.345c-.068.178.163.971.514 1.764.35.792.604 1.468.565 1.502-.04.034-1.336.912-2.879 1.951-3.746 2.521-7.957 5.929-11.425 9.245l-2.845 2.721.313 1.21c.817 3.16 3.907 12.081 4.833 13.958l1.039 2.104 2.723.175c1.497.097 4.449.292 6.559.435 27.862 1.881 50.389 14.452 64.975 36.259 11.72 17.524 16.4 44.288 11.771 67.324-.47 2.34-.458 2.614.117 2.614.968 0 3.688-12.484 4.692-21.535 3.209-28.912-2.01-52.322-16.636-74.614-14.369-21.902-31.209-35.162-54.39-42.829-5.916-1.956-9.716-2.831-9.926-2.284m-73.623 1.553c-9.728 6.175-22.165 9.986-32.637 10.001-2.912.004-3.289.052-3.156.396.082.216.15 4.15.15 8.742v8.351l1.423.443c13.536 4.22 20.949 16.539 18.457 30.673-.326 1.852-.333 2.237-.046 2.501.589.543 14.963 8.552 15.348 8.552.202 0 1.264-1.141 2.359-2.537 7.594-9.675 16.974-18.363 24.029-22.259 2.253-1.243 2.127-.902 1.549-4.201-2.843-16.212-10.872-30.842-22.011-40.103-2.757-2.293-2.736-2.29-5.465-.559m-43.44 32.445c-14.602 3.115-20.847 21.387-11.259 32.94 12.203 14.703 35.998 6.371 36.216-12.681.152-13.382-11.781-23.069-24.957-20.259m8.178 8.391c4.99 1.299 8.777 6.31 8.777 11.613 0 10.502-12.273 16.042-20.08 9.064-9.501-8.491-1.076-23.901 11.303-20.677m-4.589 7.2c-2.056.825-3.276 2.198-3.587 4.034-.907 5.368 6.59 7.966 9.263 3.21 2.024-3.601-1.99-8.723-5.676-7.244m129.337 15.447c26.264 10.032 43.806 32.202 45.55 57.568l.135 1.95-1.003-2.97c-3.662-10.85-9.502-18.416-20.801-26.952-7.533-5.69-17.879-8.89-30.588-9.462l-3.73-.167-1.192-5.322-1.192-5.321.591-.477c1.504-1.214 5.269-3.577 7.425-4.662 2.601-1.308 2.685-1.434 2.693-4.011.001-.511.033-.928.07-.928.037 0 .956.339 2.042.754m-262.134 3.593c-14.372 5.84-24.025 13.766-32.664 26.823-8.546 12.915-13.433 33.776-10.018 42.759.545 1.434 1.046.665.873-1.343-.573-6.684 4.717-19.737 11.562-28.527 9.118-11.709 21.511-18.032 37.46-19.11l4.287-.29 1.4-3.605c.77-1.982 1.774-4.544 2.232-5.694 1.076-2.701 1.08-2.674-.59-4.263-2.183-2.076-6.54-4.403-9.403-5.022-.95-.205-1.118-.432-1.294-1.744-.178-1.333-.526-1.332-3.845.016m3.201.949l.163 1.088 2.151.67c3.667 1.144 8.023 3.644 9.165 5.261l.481.68-2.121 5.466-2.121 5.467-4.143.288c-20.152 1.401-35.085 11.555-44.289 30.115-2.621 5.284-4.925 12.015-4.945 14.446-.007.783-.044.839-.283.426-.404-.696-.087-7.311.523-10.911 4.148-24.484 19.128-43.454 41.723-52.837 3.615-1.501 3.495-1.496 3.696-.159m103.243 5.335c-8.637 4.979-8.118 4.524-6.982 6.118 3.528 4.953 6.961 17.746 9.19 34.241.359 2.654.706 5.177.771 5.604.117.763.175.794 2.898 1.539 11.168 3.057 22.158 3.564 32.605 1.506 3.52-.694 8.952-2.64 12.252-4.389l1.733-.919.171-3.094c.686-12.39 3.889-26.051 8.017-34.198.82-1.617 1.323-1.202-7.423-6.132-8.465-4.771-7.8-4.532-9.153-3.289-6.324 5.813-14.918 8.199-22.472 6.238-3.892-1.011-10.295-4.591-12.562-7.024-.874-.938-.713-1.005-9.045 3.799m113.959 70.18c9.369 15.277 20.861 22.711 39.434 25.509 10.088 1.519 25.622-1.853 33.838-7.345 1.341-.897.662-.123-1.296 1.477-5.862 4.79-16.618 9.825-24.953 11.682-6.866 1.529-20.429 2.27-27.19 1.484-10.89-1.266-21.869-6.946-31.944-16.529l-2.351-2.237.445-.842c.375-.708.404-1.017.182-1.944-.414-1.733-.61-7.869-.288-9.044l.277-1.011 6.127-1.63c3.37-.896 6.196-1.638 6.28-1.649.084-.011.731.925 1.439 2.079m-174.177 2.141c-9.208 15.032-19.086 21.266-37.791 23.852-12.888 1.781-27.889-2.505-37.753-10.787-3.938-3.306-2.904-.515 1.25 3.377 11.221 10.511 30.603 17.574 46.217 16.843 15.743-.738 29.191-5.85 43.175-16.413 2.57-1.941 2.853-2.42 1.671-2.832-.453-.158-.743-.432-.743-.703 0-2.535-1.001-8.992-1.751-11.29-.785-2.406-.419-2.244-6.614-2.942-7.28-.82-6.559-.904-7.661.895m7.299-.167c2.892.33 5.362.663 5.489.741.718.444 1.814 5.496 2.286 10.537.263 2.805.373 3.303.754 3.402.721.189.572.354-2.129 2.364-18.973 14.112-40.691 19.014-59.801 13.497-11.352-3.276-19.448-7.452-27.226-14.041-1.088-.921-.878-1.228.263-.385 7.286 5.388 18.72 9.02 28.394 9.02 20.405 0 35.111-7.792 44.749-23.712.671-1.11 1.388-2.018 1.592-2.02.204-.001 2.737.268 5.629.597M224.139 323.8c-5.851 1.221-10.724 2.353-10.829 2.515-.853 1.314-1.177 5.115-1.179 13.824l-.002 7.589-1.733.292c-2.274.383-2.262.422 1.188 3.746 14.816 14.272 31.107 23.109 48.936 26.547 14.748 2.843 37.457 2.515 51.98-.75 16.658-3.746 34.952-13.394 47.201-24.894 4.508-4.232 10.921-12.091 10.467-12.827-.289-.467-.715-.158-2.571 1.866-20.159 21.982-50.054 30.207-79.478 21.866-25.102-7.116-40.668-18.902-50.592-38.305-1.366-2.671-2.029-3.728-2.33-3.711-.231.012-5.207 1.022-11.058 2.242m-63.093 2.792c-12.593 18.49-26.611 29.465-43.955 34.409-16.59 4.73-31.42 5.589-43.367 2.511-17.047-4.392-29.425-11.311-42.766-23.905-3.037-2.867-3.482-2.116-.714 1.204 10.981 13.172 23.641 22.483 41.386 30.437 14.924 6.69 31.988 8.271 56.217 5.21 25.002-3.159 45.847-11.966 59.95-25.329 2.225-2.108 2.212-2.223-.299-2.678-1.98-.359-2.036-.447-2.078-3.278-.093-6.338-1.474-14.645-2.963-17.83l-.698-1.493-8.887-1.542c-4.888-.847-8.963-1.54-9.056-1.538-.093.001-1.339 1.721-2.77 3.822" fill="#040404"/><path d="M155.074 120.297c.671.681 1.275 1.238 1.343 1.238.068 0-.425-.557-1.095-1.238-.671-.681-1.275-1.238-1.343-1.238-.068 0 .425.557 1.095 1.238M95.536 273.205l-1.353 1.424 1.423-1.353c.783-.744 1.424-1.385 1.424-1.423 0-.184-.237.03-1.494 1.352m173.632 20.669l-.727.804.804-.727c.75-.677.918-.882.727-.882-.043 0-.405.362-.804.805m-114.6 29.95l-.979 1.052 1.052-.978c.978-.91 1.166-1.126.979-1.126-.041 0-.514.474-1.052 1.052" fill="#311045"/><path d="M229.084 36.634c.671.68 1.275 1.237 1.343 1.237.068 0-.425-.557-1.095-1.237-.671-.681-1.275-1.238-1.343-1.238-.068 0 .425.557 1.095 1.238m-54.345.433l-.853.928.928-.853c.864-.794 1.042-1.003.853-1.003-.041 0-.459.417-.928.928m-12.493 8.292l-1.726 1.794 1.794-1.726c.987-.949 1.795-1.756 1.795-1.794 0-.182-.26.059-1.863 1.726m-4.739 31.002c.001.953.046 1.313.099.799a9.178 9.178 0 00-.002-1.732c-.054-.44-.098-.02-.097.933m100.224 9.035c0 .477.051.671.113.433a2.04 2.04 0 000-.866c-.062-.238-.113-.043-.113.433M143.91 90.965c0 1.906.039 2.653.086 1.66.047-.993.047-2.552-.001-3.465-.047-.913-.086-.101-.085 1.805m114.114 2.104c0 2.655.037 3.741.081 2.414.045-1.328.045-3.5 0-4.827-.044-1.327-.081-.241-.081 2.413m-113.907 4.456c0 .476.051.671.113.433a2.04 2.04 0 000-.866c-.062-.239-.113-.044-.113.433m113.619 4.084c.002.544.053.738.112.43.06-.308.057-.753-.005-.99s-.11.015-.107.56m60.643 149.629c.074.273.487.377 1.566.394l1.466.023-1.356-.1c-.746-.055-1.451-.232-1.566-.394-.146-.206-.18-.182-.11.077m5.819.67c.308.059.754.057.991-.005.236-.062-.016-.111-.56-.108-.545.003-.738.054-.431.113m-252.106 3.213c.238.062.628.062.866 0s.043-.113-.433-.113c-.477 0-.672.051-.433.113m-32.001 14.372l-1.353 1.423 1.423-1.353c1.322-1.257 1.537-1.494 1.353-1.494-.039 0-.679.641-1.423 1.424m334.096 20.049c-.054.102-.016.464.085.805.172.578.185.566.208-.186.024-.776-.085-1.007-.293-.619m-350.392 7.364c-.014 1.225.065 2.369.175 2.542.109.173.157-.662.105-1.856-.131-3.029-.251-3.321-.28-.686m249.067 20.173c0 1.294.041 1.823.092 1.176s.051-1.705 0-2.352c-.051-.646-.092-.117-.092 1.176m-.09 8.741c0 .043.362.405.805.804l.804.727-.727-.804c-.677-.75-.882-.918-.882-.727m-144.744 1.408c0 .476.051.671.113.433a2.04 2.04 0 000-.866c-.062-.239-.113-.044-.113.433M336.2 337.794c.239.063.629.063.867 0 .238-.062.043-.113-.433-.113-.477 0-.672.051-.434.113m-264.851 1.238c.238.062.628.062.866 0 .239-.062.044-.113-.433-.113-.476 0-.671.051-.433.113m238.485 5.701a9.178 9.178 0 001.732.002c.514-.053.154-.098-.799-.099-.953-.001-1.373.042-.933.097m10.776-.001c.376.057.933.055 1.237-.003.305-.059-.003-.106-.684-.104-.68.002-.929.05-.553.107M86.943 346.21c.238.062.628.062.866 0 .239-.062.044-.113-.433-.113-.476 0-.671.051-.433.113" fill="#310707"/><path d="M189.914 100.371c.003.545.053.738.113.431.059-.308.057-.754-.005-.991-.062-.236-.111.016-.108.56m18.817 1.362c0 .612.048.863.107.557a3.528 3.528 0 000-1.114c-.059-.307-.107-.056-.107.557m26.359 24.185c.307.059.753.057.99-.005.236-.062-.016-.111-.56-.108-.545.003-.738.053-.43.113m25.872 13.067c.002.681.05.93.107.554.057-.377.055-.934-.004-1.238-.058-.304-.105.003-.103.684m-69.563 5.004c.374.057.987.057 1.361 0s.068-.103-.681-.103c-.749 0-1.055.046-.68.103m9.656.001c.377.056.934.055 1.238-.004.304-.059-.003-.105-.684-.103-.681.002-.93.05-.554.107m-85.647 12.873c.511.054 1.346.054 1.857 0 .51-.053.093-.097-.928-.097-1.021 0-1.439.044-.929.097m27.78 9.288l-2.223 2.29 2.29-2.223c2.126-2.064 2.402-2.357 2.223-2.357-.037 0-1.068 1.031-2.29 2.29m150.186 20.483c0 .476.051.671.113.433a2.012 2.012 0 000-.867c-.062-.238-.113-.043-.113.434m-172.762 29.208c0 .612.048.863.107.557a3.528 3.528 0 000-1.114c-.059-.307-.107-.056-.107.557m152.482 1.485c0 .748.046 1.055.103.68a5.438 5.438 0 000-1.361c-.057-.374-.103-.068-.103.681m46.027-.077c.239.062.628.062.867 0 .238-.062.043-.113-.434-.113-.476 0-.671.051-.433.113m-46.024 7.626c.001.817.047 1.121.102.676.055-.444.054-1.113-.002-1.485-.057-.372-.102-.008-.1.809m-152.485 1.609c0 .613.048.863.107.557a3.528 3.528 0 000-1.114c-.059-.306-.107-.055-.107.557m-45.798 9.336c.375.057.987.057 1.362 0 .374-.057.068-.103-.681-.103-.749 0-1.055.046-.681.103m241.461.007c1.123.046 2.961.046 4.084 0 1.123-.046.204-.084-2.042-.084s-3.165.038-2.042.084m-5.69.238c.307.059.753.057.99-.005.236-.062-.016-.11-.56-.107-.545.002-.738.053-.43.112m-206.801 23.959c.002.68.05.93.106.553.057-.376.056-.933-.003-1.237-.059-.305-.105.003-.103.684m39.285 16.089c.74.749 1.4 1.361 1.469 1.361.068 0-.482-.612-1.221-1.361-.74-.749-1.4-1.362-1.468-1.362-.068 0 .481.613 1.22 1.362m138.552 8.966a7.866 7.866 0 001.609 0c.443-.055.081-.1-.804-.1s-1.247.045-.805.1m-154.27 9.474c.809.817 1.526 1.486 1.594 1.486.068 0-.538-.669-1.346-1.486-.808-.816-1.525-1.485-1.593-1.485-.068 0 .537.669 1.345 1.485m64.171 3.888c.307.059.808.059 1.114 0 .306-.059.056-.107-.557-.107-.612 0-.863.048-.557.107m9.657 0c.308.06.753.057.99-.005.236-.062-.016-.11-.56-.107-.545.002-.738.053-.43.112m63.24 5.395c.003.544.053.738.113.43.059-.308.056-.754-.005-.99-.062-.237-.111.015-.108.56m-128.449 2.351c0 .885.045 1.247.1.805a7.866 7.866 0 000-1.609c-.055-.443-.1-.081-.1.804m71.766 34.282c.002.545.053.738.112.431.06-.308.057-.754-.005-.991-.062-.236-.11.016-.107.56m-19.06 3.218c.003.545.054.738.113.43.059-.307.057-.753-.005-.99-.062-.236-.11.016-.108.56" fill="#44145c"/><path d="M208.721 100c0 .476.051.671.113.433a2.04 2.04 0 000-.866c-.062-.238-.113-.043-.113.433m-72.03 35.891c0 .477.051.672.113.433a2.008 2.008 0 000-.866c-.062-.238-.113-.043-.113.433m58.297 8.105c.987.047 2.602.047 3.589 0 .987-.047.179-.086-1.795-.086s-2.781.039-1.794.086m-68.89 5.571l-.727.804.805-.727c.442-.4.804-.762.804-.804 0-.191-.204-.023-.882.727m-5.496 68.255c0 .476.051.671.113.433a2.04 2.04 0 000-.866c-.062-.239-.113-.044-.113.433m200.742-.572l.922.106.076 4.626.076 4.627-.008-4.703-.009-4.703-.99-.03-.99-.029.923.106m-48.234 3.913c.001 1.362.042 1.887.093 1.168.05-.719.049-1.833-.002-2.475-.05-.643-.091-.054-.091 1.307m-152.503 3.218c.003.545.053.738.113.43.059-.307.057-.753-.005-.99-.062-.236-.111.016-.108.56m-3.215 63.173c.376.057.933.055 1.238-.004.304-.058-.004-.105-.684-.103-.681.002-.93.05-.554.107m77.731 10.898c1.061.046 2.732.046 3.713-.001.98-.047.112-.085-1.93-.085-2.042.001-2.845.039-1.783.086m-31.447 20.035c.238.063.628.063.866 0 .238-.062.043-.113-.433-.113-.477 0-.671.051-.433.113" fill="#190926"/><path d="M164.712 42.884l-.727.804.805-.727c.442-.4.804-.762.804-.804 0-.192-.204-.023-.882.727m74.521.68c.67.681 1.274 1.238 1.342 1.238.069 0-.424-.557-1.095-1.238-.67-.68-1.275-1.237-1.343-1.237-.068 0 .425.557 1.096 1.237m18.745 54.951c0 .476.051.671.113.433a2.008 2.008 0 000-.866c-.062-.239-.113-.044-.113.433m-95.849 6.559c-.602.613-1.038 1.114-.97 1.114.068 0 .616-.501 1.217-1.114.601-.612 1.038-1.114.97-1.114-.068 0-.616.502-1.217 1.114m86.003 3.899l-.979 1.052 1.052-.979c.579-.538 1.052-1.011 1.052-1.052 0-.187-.215 0-1.125.979m-90.225.619l-.853.928.929-.853c.864-.794 1.042-1.004.853-1.004-.042 0-.459.418-.929.929m195.558 137.011c0 .037.864.9 1.919 1.918l1.918 1.85-1.85-1.918c-1.719-1.782-1.987-2.031-1.987-1.85m8.045 22.209c1.083 1.089 2.024 1.98 2.092 1.98.068 0-.762-.891-1.845-1.98-1.082-1.089-2.024-1.98-2.092-1.98-.068 0 .762.891 1.845 1.98M23.77 299.505c0 .204.108.538.24.743.213.33.24.33.24 0 0-.205-.108-.539-.24-.743-.213-.33-.24-.33-.24 0m272.393 24.01c.809.817 1.526 1.485 1.594 1.485.068 0-.538-.668-1.346-1.485-.808-.817-1.525-1.485-1.594-1.485-.068 0 .538.668 1.346 1.485m-191.46 2.104c-1.014 1.021-1.788 1.856-1.72 1.856.068 0 .953-.835 1.967-1.856 1.015-1.021 1.789-1.857 1.721-1.857-.068 0-.954.836-1.968 1.857m170.421 2.599c.532.544 1.022.99 1.09.99.068 0-.311-.446-.843-.99-.531-.545-1.022-.99-1.09-.99-.068 0 .311.445.843.99m-236.259 1.145c-.005.418.665.907.845.617a.292.292 0 00-.102-.398c-.138-.086-.253-.066-.255.044-.002.111-.112.034-.244-.171-.132-.204-.242-.245-.244-.092m292.88 8.444c.783.049 2.064.049 2.847 0 .782-.049.142-.09-1.424-.09-1.565 0-2.206.041-1.423.09M66.78 339.045a30.31 30.31 0 002.97-.001c.777-.049.077-.089-1.557-.088-1.634 0-2.27.04-1.413.089m14.099 7.425c.851.049 2.243.049 3.094 0 .851-.048.154-.087-1.547-.087-1.702 0-2.398.039-1.547.087" fill="#180404"/></g></svg>