<svg xmlns="http://www.w3.org/2000/svg" viewBox="0 0 800 800"><linearGradient id="a" gradientUnits="userSpaceOnUse" x1="320.57" y1="430.42" x2="322.57" y2="430.42" gradientTransform="scale(-400 400) rotate(-45 -358.071 605.086)"><stop offset="0" stop-opacity="0"/><stop offset="1"/></linearGradient><path d="M0 0h133.3v133.3h133.3V0H400v133.3h133.3V0h133.3v133.3H800v133.3H666.7V400H800v133.3H666.7v133.3H800V800H666.7V666.7H533.3V800H400V666.7H266.7V800H133.3V666.7H0V533.3h133.3V400H0V266.7h133.3V133.3H0V0zm666.7 400H533.3v133.3h133.3V400zm0-266.7H533.3v133.3h133.3V133.3zm-133.4 400H400v133.3h133.3V533.3zm-133.3 0V400H266.7v133.3H400zm-133.3 0H133.3v133.3h133.3V533.3zm266.6-266.6H400V400h133.3V266.7zm-133.3 0V133.3H266.7v133.3H400zm-133.3 0H133.3V400h133.3l.1-133.3z" fill="url(#a)"/></svg>