<svg version="1.1" id="prefix__Icons" xmlns="http://www.w3.org/2000/svg" x="0" y="0" viewBox="0 0 512 512" xml:space="preserve"><style>.prefix__st0{fill:brown}</style><path class="prefix__st0" d="M470.5 441.1h-429c-15.3 0-27.7-12.4-27.7-27.7V143.6c0-15.3 12.4-27.7 27.7-27.7h139.3l20.8-34.6c3.7-6.3 10.5-10.2 17.9-10.2H344c7.3 0 14.1 3.9 17.9 10.2l20.8 34.6h87.9c15.3 0 27.7 12.4 27.7 27.7v269.8c-.1 15.3-12.5 27.7-27.8 27.7zm-429-311.4c-7.6 0-13.8 6.2-13.8 13.8v269.8c0 7.6 6.2 13.8 13.8 13.8h429c7.6 0 13.8-6.2 13.8-13.8V143.6c0-7.6-6.2-13.8-13.8-13.8h-92c-2.4 0-4.7-1.3-6-3.4l-22.7-38.2c-1.2-2.1-3.5-3.4-6-3.4H219.4c-2.4 0-4.7 1.3-6 3.4l-22.6 38.2c-1.2 2.1-3.5 3.4-6 3.4H41.5z"/><path class="prefix__st0" d="M136.9 129.7H81.1c-3.8 0-6.9-3.1-6.9-6.9V87.2c0-7.1 5.8-12.9 12.9-12.9H131c7.1 0 12.9 5.8 12.9 12.9v35.6c-.1 3.8-3.2 6.9-7 6.9zM88 115.9h42V88.2H88v27.7zM114.4 346.3H20.8c-3.8 0-6.9-3.1-6.9-6.9V219.7c0-3.8 3.1-6.9 6.9-6.9h93.7c3.8 0 6.9 3.1 6.9 6.9 0 3.8-3.1 6.9-6.9 6.9H27.7v105.9h86.8c3.8 0 6.9 3.1 6.9 6.9 0 3.8-3.1 6.9-7 6.9zM491.2 346.3H312c-3.8 0-6.9-3.1-6.9-6.9 0-3.8 3.1-6.9 6.9-6.9h172.4V226.6H312c-3.8 0-6.9-3.1-6.9-6.9 0-3.8 3.1-6.9 6.9-6.9h179.3c3.8 0 6.9 3.1 6.9 6.9v119.7c0 3.8-3.1 6.9-7 6.9z"/><path class="prefix__st0" d="M212.8 402.3C145 402.3 90 347.3 90 279.5s55-122.8 122.8-122.8 122.8 55 122.8 122.8c-.1 67.8-55 122.8-122.8 122.8zm0-231.7c-60.2 0-109 48.8-109 109s48.8 109 109 109 109-48.8 109-109c-.1-60.2-48.9-109-109-109z"/><path class="prefix__st0" d="M212.8 357.6c-43.1.1-78.1-34.7-78.3-77.8s34.7-78.1 77.8-78.3 78.1 34.7 78.3 77.8v.2c0 43-34.8 77.9-77.8 78.1zm0-142.3c-35.5-.1-64.3 28.5-64.4 64s28.5 64.3 64 64.4c35.5.1 64.3-28.5 64.4-64v-.2c-.1-35.3-28.7-64-64-64.2zM429 194.9h-69.2c-3.8 0-6.9-3.1-6.9-6.9v-33.5c0-3.8 3.1-6.9 6.9-6.9H429c3.8 0 6.9 3.1 6.9 6.9V188c0 3.8-3.1 6.9-6.9 6.9zm-62.3-13.8h55.4v-19.6h-55.4v19.6zM378.5 129.7H184.8c-3.8 0-6.9-3.1-6.9-6.9s3.1-6.9 6.9-6.9h193.7c3.8 0 6.9 3.1 6.9 6.9s-3 6.9-6.9 6.9z"/></svg>