<svg version="1.1" id="prefix__Icons" xmlns="http://www.w3.org/2000/svg" x="0" y="0" viewBox="0 0 512 512" xml:space="preserve"><style>.prefix__st0{fill:#00f}</style><path class="prefix__st0" d="M131.5 138.4H20.8c-3.8 0-6.9-3.1-6.9-6.9V20.8c0-3.8 3.1-6.9 6.9-6.9h110.7c3.8 0 6.9 3.1 6.9 6.9v110.7c0 3.8-3.1 6.9-6.9 6.9zM27.7 124.5h96.9V27.7H27.7v96.8zM131.5 498.2H20.8c-3.8 0-6.9-3.1-6.9-6.9V380.5c0-3.8 3.1-6.9 6.9-6.9h110.7c3.8 0 6.9 3.1 6.9 6.9v110.7c0 3.9-3.1 7-6.9 7zM27.7 484.3h96.9v-96.9H27.7v96.9zM491.2 498.2H380.5c-3.8 0-6.9-3.1-6.9-6.9V380.5c0-3.8 3.1-6.9 6.9-6.9h110.7c3.8 0 6.9 3.1 6.9 6.9v110.7c.1 3.9-3 7-6.9 7zm-103.7-13.9h96.9v-96.9h-96.9v96.9zM491.2 138.4H380.5c-3.8 0-6.9-3.1-6.9-6.9V20.8c0-3.8 3.1-6.9 6.9-6.9h110.7c3.8 0 6.9 3.1 6.9 6.9v110.7c.1 3.8-3 6.9-6.9 6.9zm-103.7-13.9h96.9V27.7h-96.9v96.8z"/><path class="prefix__st0" d="M131.5 69.2h249.1V83H131.5V69.2zM69.2 131.5H83v249.1H69.2V131.5zM131.5 429h249.1v13.8H131.5V429zM429 131.5h13.8v249.1H429V131.5zM152.2 366.7c-1.8 0-3.6-.7-4.9-2-1.8-1.8-2.4-4.5-1.7-6.9l19.9-60.3c.3-1 .9-1.9 1.7-2.7l139.6-139.2c13.8-13.6 36-13.5 49.6.2 13.6 13.7 13.6 35.7 0 49.4L216.9 344.8c-.8.8-1.7 1.3-2.7 1.7l-59.8 20.3c-.7 0-1.4 0-2.2-.1zm26-63l-15 45.1 45.1-15 138.4-138.4c8.3-8.3 8.3-21.8 0-30.1-8.4-8-21.7-8-30.1 0L178.2 303.7z"/><path class="prefix__st0" d="M167.2 304.8l9.8-9.8 39.9 39.9-9.8 9.8-39.9-39.9zM286.8 185.3l9.8-9.8 39.9 39.9-9.8 9.8-39.9-39.9z"/><path class="prefix__st0" d="M187.2 315l119.6-119.6 9.8 9.8L197 324.8l-9.8-9.8z"/></svg>