<svg xmlns="http://www.w3.org/2000/svg" viewBox="0 0 800 800"><path d="M0 0h800v800H0V0z" fill="none"/><path d="M800 711.1V800h-88.9v-88.9H800zm-177.8 0V800h-88.9v-88.9h88.9zm-177.8 0V800h-88.9v-88.9h88.9zm-177.7 0V800h-88.9v-88.9h88.9zm-177.8 0V800H0v-88.9h88.9zM800 533.3v88.9h-88.9v-88.9H800zm-711.1 0v88.9H0v-88.9h88.9zm0-177.7v88.9H0v-88.9h88.9zM577.8 0c119 .1 216.8 93.7 222 212.6l.2 9.6v222.2h-88.9V222.2c-.2-70.5-55.1-128.7-125.5-133.1l-7.8-.2H355.6V0h222.2zM88.9 177.8v88.9H0v-88.9h88.9zM88.9 0v88.9H0V0h88.9zm177.8 0v88.9h-88.9V0h88.9z"/></svg>