<svg xmlns="http://www.w3.org/2000/svg" viewBox="0 0 800 800"><path d="M0 38.7C0 17.3 17.3 0 38.7 0h722.6C782.7 0 800 17.3 800 38.7s-17.3 38.7-38.7 38.7H38.7C17.3 77.4 0 60.1 0 38.7zm0 206.5c0-49.9 40.4-90.3 90.3-90.3h619.4c49.9 0 90.3 40.4 90.3 90.3v51.6c0 49.9-40.4 90.3-90.3 90.3H90.3C40.4 387.1 0 346.7 0 296.8v-51.6zm90.3-12.9c-7.1 0-12.9 5.8-12.9 12.9v51.6c0 7.1 5.8 12.9 12.9 12.9h619.4c7.1 0 12.9-5.8 12.9-12.9v-51.6c0-7.1-5.8-12.9-12.9-12.9H90.3zm0 232.2C40.4 464.5 0 505 0 554.8v154.8c0 50 40.4 90.4 90.3 90.4h619.4c49.9 0 90.3-40.4 90.3-90.3V554.8c0-49.9-40.4-90.3-90.3-90.3H90.3zm-12.9 90.3c0-7.1 5.8-12.9 12.9-12.9h619.4c7.1 0 12.9 5.8 12.9 12.9v154.8c0 7.1-5.8 12.9-12.9 12.9H90.3c-7.1 0-12.9-5.8-12.9-12.9V554.8z" fill-rule="evenodd" clip-rule="evenodd"/></svg>