<svg height="512" viewBox="0 0 60 60" width="512" xmlns="http://www.w3.org/2000/svg"><path d="M55 0H5a5.006 5.006 0 0 0-5 5v38a5.006 5.006 0 0 0 5 5h13.13a2.98 2.98 0 0 1 2.27 1.034l7.3 9.886a3 3 0 0 0 4.652-.046l2.263-3.074A14.982 14.982 0 0 0 60 45c0-.426-.029-.846-.064-1.263.04-.244.062-.49.064-.737V5a5.006 5.006 0 0 0-5-5zM45 58c-7.18 0-13-5.82-13-13s5.82-13 13-13 13 5.82 13 13c-.008 7.176-5.824 12.992-13 13zm0-28a14.979 14.979 0 0 0-11.755 24.29l-2.473 3.351a1.077 1.077 0 0 1-1.507.046l-7.3-9.887A4.989 4.989 0 0 0 18.13 46H5a3 3 0 0 1-3-3V5a3 3 0 0 1 3-3h50a3 3 0 0 1 3 3v32.548A15 15 0 0 0 45 30z"/><path d="M46 35h-2a2 2 0 0 0-2 2v8a2 2 0 0 0 2 2h2a2 2 0 0 0 2-2v-8a2 2 0 0 0-2-2zm-2 10v-8h2v8zm2 4h-2a2 2 0 0 0-2 2v2a2 2 0 0 0 2 2h2a2 2 0 0 0 2-2v-2a2 2 0 0 0-2-2zm-2 4v-2h2v2zM8 9h3a1 1 0 0 0 0-2H8a1 1 0 1 0 0 2zm8 0h20a1 1 0 0 0 0-2H16a1 1 0 0 0 0 2zm36-2H41a1 1 0 0 0 0 2h11a1 1 0 0 0 0-2zm0 6h-3a1 1 0 0 0 0 2h3a1 1 0 0 0 0-2zm-7 1a1 1 0 0 0-1-1H24a1 1 0 0 0 0 2h20a1 1 0 0 0 1-1zM8 15h11a1 1 0 0 0 0-2H8a1 1 0 0 0 0 2zm0 6h3a1 1 0 0 0 0-2H8a1 1 0 0 0 0 2zm8-2a1 1 0 0 0 0 2h20a1 1 0 0 0 0-2zm-5 12H8a1 1 0 0 0 0 2h3a1 1 0 0 0 0-2zm20 0H16a1 1 0 0 0 0 2h15a1 1 0 0 0 0-2zm21-12H41a1 1 0 0 0 0 2h11a1 1 0 0 0 0-2zm0 6h-3a1 1 0 0 0 0 2h3a1 1 0 0 0 0-2zm-8 0H24a1 1 0 0 0 0 2h20a1 1 0 0 0 0-2zM8 27h11a1 1 0 0 0 0-2H8a1 1 0 0 0 0 2z"/></svg>